<svg xmlns="http://www.w3.org/2000/svg" width="32" height="32" version="1.1" viewBox="0 0 8.467 8.467"><defs><linearGradient id="linearGradient3856-65" x1="400.56" x2="400.56" y1="514.21" y2="499.21" gradientTransform="matrix(.24694 0 0 .24694 -96.661 169.72)" gradientUnits="userSpaceOnUse"><stop offset="0" stop-color="#1d60c4"/><stop offset="1" stop-color="#1d60c4"/></linearGradient></defs><metadata/><g><g transform="translate(0 -288.53) matrix(2 0 0 2 .0000066439 -297)"><rect width="3.704" height="3.704" x=".265" y="293.03" fill="url(#linearGradient3856-65)" rx=".756" ry=".756"/><rect width="3.21" height="3.21" x=".512" y="293.28" fill="#75afff" rx=".655" ry=".655"/><path d="m2.9488 294.04c-0.061883 0.0116-0.12351 0.0518-0.16206 0.10803l-0.99549 1.4585-0.37813-0.37813c-0.09648-0.0965-0.25079-0.0965-0.34727 0s-0.09648 0.25078 0 0.34726l0.54791 0.54791 0.038586 0.0386c0.010396 0.0103 0.018336 0.0223 0.030867 0.0309 0.00965 0.007 0.020696 0.0104 0.030869 0.0154 0.012618 0.006 0.025302 0.0115 0.038584 0.0154 0.0075 0.002 0.015557 0.006 0.023127 0.008 0.00486 0.001 0.010512-0.00066 0.015441 0 0.020836 0.003 0.040885 0.003 0.061735 0 0.020836-0.003 0.04198-0.007 0.061737-0.0155 0.031013-0.0123 0.060484-0.0293 0.084888-0.054 0.010279-0.0104 0.022294-0.0184 0.030867-0.0309l1.1653-1.7055c0.077102-0.11257 0.050833-0.27016-0.061735-0.34726-0.056285-0.0385-0.12333-0.0502-0.18521-0.0386z" opacity=".2"/><path fill="#1a1a1a" d="m2.9488 293.79c-0.061883 0.0116-0.12351 0.0517-0.16206 0.10803l-0.99549 1.4585-0.37813-0.37813c-0.09648-0.0965-0.25079-0.0965-0.34727 0s-0.09648 0.25078 0 0.34726l0.54791 0.54791 0.038586 0.0386c0.010396 0.0103 0.018336 0.0223 0.030867 0.0309 0.00965 0.007 0.020696 0.0104 0.030869 0.0154 0.012618 0.006 0.025302 0.0115 0.038584 0.0154 0.0075 0.002 0.015557 0.006 0.023127 0.008 0.00486 0.001 0.010512-0.00065 0.015441 0 0.020836 0.003 0.040885 0.003 0.061735 0 0.020836-0.003 0.04198-0.007 0.061737-0.0154 0.031013-0.0123 0.060484-0.0293 0.084888-0.054 0.010279-0.0104 0.022294-0.0184 0.030867-0.0309l1.1653-1.7055c0.077102-0.11257 0.050833-0.27016-0.061735-0.34727-0.056285-0.0385-0.12333-0.0501-0.18521-0.0386z"/></g></g></svg>