<svg xmlns="http://www.w3.org/2000/svg" xmlns:xlink="http://www.w3.org/1999/xlink" width="32" height="32" version="1.1" viewBox="0 0 8.467 8.467"><defs><linearGradient id="linearGradient5276" x1="404" x2="398.38" y1="514.24" y2="503.7" gradientTransform="matrix(.24694 0 0 .24694 -96.661 169.72)" gradientUnits="userSpaceOnUse" xlink:href="#linearGradient6651"/><linearGradient id="linearGradient6651"><stop offset="0" stop-color="#fff"/></linearGradient><linearGradient id="linearGradient5278" x1="402.25" x2="396.62" y1="507.86" y2="502.85" gradientTransform="matrix(.24694 0 0 .24694 -96.661 169.72)" gradientUnits="userSpaceOnUse" xlink:href="#linearGradient6651"/></defs><metadata/><g><g transform="translate(0 -288.53) matrix(2 0 0 2 .0000066439 -297)"><rect width="3.704" height="3.704" x=".265" y="293.03" fill="url(#linearGradient5276)" opacity=".85" rx=".756" ry=".756"/><rect width="3.21" height="3.21" x=".512" y="293.28" fill="url(#linearGradient5278)" opacity=".85" rx=".655" ry=".655"/><path fill="#d1d1f1" d="m2.9488 294.04c-0.061883 0.0115-0.12351 0.0518-0.16206 0.10804l-0.9955 1.4585-0.37813-0.37813c-0.096479-0.0965-0.25079-0.0965-0.34727 0-0.096479 0.0965-0.096479 0.25079 0 0.34727l0.54791 0.5479 0.038585 0.0386c0.010396 0.0103 0.01834 0.0223 0.030868 0.0309 0.00966 0.007 0.020706 0.0104 0.03087 0.0154 0.01261 0.006 0.025303 0.0115 0.038583 0.0155 0.00751 0.002 0.015562 0.006 0.023128 0.008 0.00486 0.001 0.010505-0.00069 0.015453 0 0.020836 0.003 0.040884 0.003 0.061733 0 0.020836-0.003 0.04198-0.007 0.061737-0.0154 0.031013-0.0123 0.060485-0.0293 0.084889-0.054 0.010288-0.0104 0.022295-0.0184 0.030868-0.0309l1.1653-1.7055c0.077102-0.11257 0.050833-0.27016-0.061735-0.34727-0.056285-0.0385-0.12333-0.0501-0.18521-0.0386z" opacity=".5"/><path fill="#206ad9" fill-opacity=".941" d="m2.9488 293.79c-0.061883 0.0116-0.12351 0.0517-0.16206 0.10803l-0.9955 1.4585-0.37813-0.37813c-0.096479-0.0965-0.25079-0.0965-0.34727 0-0.096479 0.0965-0.096479 0.25078 0 0.34726l0.54791 0.54791 0.038585 0.0386c0.010396 0.0103 0.01834 0.0223 0.030868 0.0309 0.00966 0.007 0.020706 0.0104 0.03087 0.0154 0.01261 0.006 0.025303 0.0115 0.038583 0.0154 0.00751 0.002 0.015562 0.006 0.023128 0.008 0.00486 0.001 0.010505-0.0007 0.015453 0 0.020836 0.003 0.040884 0.003 0.061733 0 0.020836-0.003 0.04198-0.007 0.061737-0.0154 0.031013-0.0123 0.060485-0.0293 0.084889-0.054 0.010288-0.0104 0.022295-0.0184 0.030868-0.0309l1.1654-1.72c0.077102-0.11257 0.050833-0.27017-0.061735-0.34727-0.056285-0.0385-0.12333-0.0502-0.18521-0.0386z" opacity=".5"/></g></g></svg>