<svg xmlns="http://www.w3.org/2000/svg" width="80" height="80" version="1.1" viewBox="0 0 21.167 21.167"><metadata/><g><g stroke-width=".112" transform="translate(0 -275.83) matrix(2 0 0 2 .054753 275.79)"><rect width="9.525" height="9.525" x=".502" y=".551" fill="#b3b3b3" rx="1.945" ry="1.945"/><rect width="8.573" height="8.573" x=".977" y="1.027" fill="none" rx="1.75" ry="1.75"/><path d="m7.4034 3.1333c-0.1591 0.0298-0.3176 0.1331-0.4167 0.2778l-2.5598 3.7505-0.9724-0.9723c-0.24809-0.24809-0.64489-0.24809-0.89298 0s-0.24809 0.64489 0 0.89298l1.4089 1.4089 0.099219 0.09922c0.026735 0.026415 0.047182 0.057342 0.079377 0.079376 0.024828 0.017019 0.053213 0.02667 0.079376 0.039688 0.032449 0.016002 0.065062 0.029591 0.09922 0.039687 0.019305 0.00572 0.040006 0.015876 0.059499 0.019813 0.01251 0.00253 0.027052-0.00191 0.03969 0 0.053594 0.00685 0.10514 0.00685 0.15875 0 0.053593-0.00692 0.10794-0.018986 0.15875-0.039689 0.079752-0.03156 0.15553-0.07537 0.21829-0.1389 0.0264-0.0268 0.0573-0.0473 0.0794-0.0794l2.9965-4.3856c0.1982-0.2894 0.1307-0.6947-0.1588-0.893-0.1447-0.0991-0.3171-0.1289-0.4763-0.0992z" opacity=".2"/><path fill="#1a1a1a" d="m7.4034 2.4993c-0.1591 0.0298-0.3176 0.1331-0.4167 0.2778l-2.5598 3.7505-0.9724-0.9723c-0.24809-0.24809-0.64489-0.24809-0.89298 0s-0.24809 0.64489 0 0.89298l1.4089 1.4089 0.099219 0.09922c0.026735 0.026417 0.047182 0.057342 0.079377 0.079376 0.024828 0.017019 0.053213 0.026671 0.079376 0.039688 0.032449 0.016002 0.065062 0.02959 0.09922 0.039687 0.019305 0.00572 0.040006 0.015876 0.059499 0.019812 0.01251 0.00253 0.027052-0.00191 0.03969 0 0.053594 0.00692 0.10514 0.00692 0.15875 0 0.053593-0.00692 0.10794-0.018986 0.15875-0.039687 0.079752-0.03156 0.15553-0.075376 0.21829-0.1389 0.026415-0.026734 0.05734-0.047181 0.079375-0.079375l2.9965-4.3856c0.1982-0.2894 0.1307-0.6947-0.1588-0.893-0.1447-0.0991-0.3171-0.1289-0.4763-0.0992z"/></g></g></svg>