<svg xmlns="http://www.w3.org/2000/svg" xmlns:xlink="http://www.w3.org/1999/xlink" width="16" height="16" version="1.1" viewBox="0 0 4.233 4.233"><defs><linearGradient id="linearGradient5276" x1="404" x2="398.38" y1="514.24" y2="503.7" gradientTransform="matrix(1.1378 0 0 1.1378 -554.95 -663.07)" gradientUnits="userSpaceOnUse" xlink:href="#linearGradient6651"/><linearGradient id="linearGradient6651"><stop offset="0" stop-color="#fff"/></linearGradient><linearGradient id="linearGradient5278" x1="402.25" x2="396.62" y1="507.86" y2="502.85" gradientTransform="matrix(1.1378 0 0 1.1378 -554.95 -663.07)" gradientUnits="userSpaceOnUse" xlink:href="#linearGradient6651"/></defs><metadata/><g transform="translate(0 -292.77)"><g id="checkbox-checked-selected"><g transform="matrix(.21704 0 0 .21704 23.785 313.63)"><rect width="17.067" height="17.067" x="-108.37" y="-94.908" fill="url(#linearGradient5276)" opacity=".759" rx="3.484" ry="3.484"/><rect width="14.791" height="14.791" x="-107.23" y="-93.77" fill="url(#linearGradient5278)" opacity=".698" rx="3.02" ry="3.02"/><path fill="#d1d1f1" d="m-96-90.28c-0.28512 0.05323-0.56905 0.23844-0.74667 0.49776l-4.5867 6.72-1.7422-1.7422c-0.44452-0.44451-1.1555-0.44451-1.6 0-0.44452 0.44452-0.44452 1.1555 0 1.6l2.5244 2.5244 0.17778 0.17776c0.0479 0.04736 0.0845 0.10283 0.14222 0.14224 0.0445 0.03051 0.0954 0.04779 0.14223 0.07115 0.0581 0.02869 0.11658 0.05301 0.17777 0.07125 0.0346 0.01099 0.0717 0.02848 0.10656 0.03552 0.0224 0.0053 0.0484-0.0032 0.0712 0 0.096 0.01227 0.18837 0.01227 0.28443 0 0.096-0.01248 0.19342-0.03403 0.28445-0.07115 0.14289-0.05653 0.27868-0.13506 0.39112-0.24891 0.0474-0.04789 0.10272-0.08469 0.14222-0.14221l5.3689-7.8578c0.35524-0.51864 0.23421-1.2447-0.28444-1.6-0.25933-0.17761-0.56822-0.23108-0.85333-0.17777z" opacity=".944"/></g><path fill="#206ad9" fill-opacity=".941" d="m-96-91.418c-0.28512 0.05344-0.56905 0.23844-0.74667 0.49777l-4.5867 6.72-1.7422-1.7422c-0.44452-0.44453-1.1555-0.44453-1.6 0-0.44452 0.44451-0.44452 1.1555 0 1.6l2.5244 2.5244 0.17778 0.17777c0.0479 0.04736 0.0845 0.10283 0.14222 0.14223 0.0445 0.03051 0.0954 0.04779 0.14223 0.07115 0.0581 0.02869 0.11658 0.05301 0.17777 0.07115 0.0346 0.01099 0.0717 0.02848 0.10656 0.03552 0.0224 0.0053 0.0484-0.0032 0.0712 0 0.096 0.01227 0.18837 0.01227 0.28443 0 0.096-0.01248 0.19342-0.03403 0.28445-0.07115 0.14289-0.05653 0.27868-0.13506 0.39112-0.2489 0.0474-0.04789 0.10272-0.08459 0.14222-0.14221l5.3689-7.8578c0.35524-0.51864 0.23421-1.2448-0.28444-1.6-0.25933-0.17761-0.56822-0.23109-0.85333-0.17777z" transform="matrix(.21704 0 0 .21704 23.785 313.63)"/></g></g></svg>