<svg xmlns="http://www.w3.org/2000/svg" width="80" height="80" version="1.1" viewBox="0 0 21.167 21.167"><defs><linearGradient id="linearGradient3856-64-5-8" x1="404" x2="398.38" y1="514.24" y2="503.7" gradientTransform="matrix(.635 0 0 .635 -248.73 -30.112)" gradientUnits="userSpaceOnUse"><stop offset="0" stop-color="#1754da"/><stop offset="1" stop-color="#144cc6"/></linearGradient><linearGradient id="linearGradient3853-04-0-4" x1="402.25" x2="396.62" y1="507.86" y2="502.85" gradientTransform="matrix(.65942 0 0 .65942 -258.5 -42.491)" gradientUnits="userSpaceOnUse"><stop offset="0" stop-color="#1859e7"/><stop offset="1" stop-color="#154ecb"/></linearGradient></defs><metadata/><g><g transform="translate(0 -275.83) matrix(2 0 0 2 .046273 -297.07)"><rect width="9.525" height="9.525" x=".506" y="286.98" fill="url(#linearGradient3856-64-5-8)" rx="1.945" ry="1.945"/><rect width="8.572" height="8.572" x=".982" y="287.46" fill="url(#linearGradient3853-04-0-4)" rx="1.75" ry="1.75"/><path d="m7.4084 289.57c-0.15912 0.0298-0.31759 0.13308-0.41672 0.27781l-2.5599 3.74-0.9723-0.97c-0.24809-0.24809-0.64488-0.24809-0.89297 0s-0.24809 0.64488 0 0.89297l1.4089 1.4089 0.099218 0.0992c0.026734 0.0264 0.047181 0.0573 0.079376 0.0794 0.024828 0.017 0.053212 0.0267 0.079375 0.0397 0.032448 0.016 0.065062 0.0296 0.099219 0.0397 0.019304 0.006 0.040005 0.0159 0.059499 0.0198 0.012508 0.003 0.027051-0.002 0.039688 0 0.053594 0.007 0.10514 0.007 0.15875 0 0.053594-0.007 0.10794-0.019 0.15875-0.0397 0.079751-0.0316 0.15553-0.0754 0.21828-0.13891 0.026415-0.0267 0.057341-0.0472 0.079375-0.0794l2.9964-4.3855c0.19826-0.28946 0.13071-0.6947-0.15875-0.89297-0.14473-0.0991-0.31713-0.12897-0.47625-0.0992z" opacity=".2"/><path fill="#1a1a1a" d="m7.4084 288.93c-0.15912 0.0298-0.31759 0.13309-0.41672 0.27782l-2.5599 3.75-0.9723-0.97c-0.24809-0.24809-0.64488-0.24809-0.89297 0s-0.24809 0.64488 0 0.89297l1.4089 1.4089 0.099218 0.0992c0.026734 0.0264 0.047181 0.0573 0.079376 0.0794 0.024828 0.017 0.053212 0.0267 0.079375 0.0397 0.032448 0.016 0.065062 0.0296 0.099219 0.0397 0.019304 0.006 0.040005 0.0159 0.059499 0.0198 0.012508 0.003 0.027051-0.002 0.039688 0 0.053594 0.007 0.10514 0.007 0.15875 0 0.053594-0.007 0.10794-0.019 0.15875-0.0397 0.079751-0.0316 0.15553-0.0754 0.21828-0.13891 0.026415-0.0267 0.057341-0.0472 0.079375-0.0794l2.9964-4.3855c0.19826-0.28946 0.13071-0.6947-0.15875-0.89297-0.14473-0.0991-0.31713-0.12898-0.47625-0.0992z"/></g></g></svg>