<svg xmlns="http://www.w3.org/2000/svg" width="40" height="40" version="1.1" viewBox="0 0 10.583 10.583"><metadata/><g transform="translate(0 -286.42)"><g id="checkbox-selectionmode" transform="matrix(.24805 0 0 .24805 92.604 385.01)"><rect width="42.667" height="42.667" x="-373.33" y="-397.48" fill="none" rx="0" ry="0"/><g transform="matrix(.45 0 0 .45 -173.08 -206.12)"><rect width="85.333" height="85.333" x="-440.5" y="-420.26" fill="#b3b3b3" rx="17.422" ry="17.422"/><rect width="76.8" height="76.8" x="-436.24" y="-416" fill="none" rx="15.68" ry="15.68"/><path d="m-378.67-397.13c-1.4256 0.2668-2.8452 1.1923-3.7333 2.4889l-22.933 33.6-8.7111-8.7111c-2.2226-2.2226-5.7774-2.2226-8 0s-2.2226 5.7774 0 8l12.622 12.622 0.88888 0.88889c0.23951 0.23665 0.42269 0.51371 0.71112 0.71111 0.22243 0.15247 0.47672 0.23893 0.71111 0.35556 0.2907 0.14336 0.58288 0.2651 0.88889 0.35555 0.17295 0.0512 0.3584 0.14223 0.53304 0.1775 0.11207 0.0227 0.24235-0.0171 0.35557 0 0.48014 0.0614 0.94191 0.0614 1.4222 0 0.48013-0.062 0.96705-0.17009 1.4222-0.35556 0.71448-0.28274 1.3934-0.67522 1.9556-1.2444 0.23665-0.2395 0.5137-0.42326 0.7111-0.71112l26.844-39.289c1.7762-2.5932 1.171-6.2238-1.4222-8-1.2966-0.88809-2.8411-1.1555-4.2667-0.88889z" opacity=".2"/><path fill="#e9f1fc" d="m-378.67-402.81c-1.4256 0.26681-2.8452 1.1923-3.7333 2.4889l-22.933 33.6-8.7111-8.7111c-2.2226-2.2226-5.7774-2.2226-8 0s-2.2226 5.7774 0 8l12.622 12.622 0.88888 0.88889c0.23951 0.23666 0.42269 0.51371 0.71112 0.71111 0.22243 0.15247 0.47672 0.23894 0.71111 0.35556 0.2907 0.14336 0.58288 0.26509 0.88889 0.35555 0.17295 0.0512 0.3584 0.14223 0.53304 0.17749 0.11207 0.0227 0.24235-0.0171 0.35557 0 0.48014 0.062 0.94191 0.062 1.4222 0 0.48013-0.062 0.96705-0.17009 1.4222-0.35555 0.71448-0.28274 1.3934-0.67528 1.9556-1.2444 0.23665-0.2395 0.5137-0.42268 0.7111-0.7111l26.844-39.289c1.7762-2.5932 1.171-6.2238-1.4222-8-1.2966-0.88809-2.8411-1.1555-4.2667-0.88889z"/></g></g></g></svg>