<svg xmlns="http://www.w3.org/2000/svg" xmlns:xlink="http://www.w3.org/1999/xlink" width="16" height="16" version="1.1" viewBox="0 0 4.233 4.233"><defs><linearGradient id="linearGradient3856-3-8" x1="404" x2="398.38" y1="514.24" y2="503.7" gradientTransform="matrix(1.1378 0 0 1.1378 -597.61 -1039.5)" gradientUnits="userSpaceOnUse"><stop offset="0" stop-color="#87b7ff"/><stop offset="1" stop-color="#98c1ff"/></linearGradient><linearGradient id="linearGradient3853-3-9" x1="402.25" x2="396.62" y1="507.86" y2="502.85" gradientTransform="matrix(1.1378 0 0 1.1378 -597.61 -1039.5)" gradientUnits="userSpaceOnUse"><stop offset="0" stop-color="#75afff"/><stop offset="1" stop-color="#8cbaff"/></linearGradient></defs><metadata/><g transform="translate(0 -292.77)"><g id="checkbox-checked-insensitive"><g transform="matrix(.21704 0 0 .21704 4.1848 347.34) translate(132.97 221.16)"><rect width="17.067" height="17.067" x="-151.03" y="-471.37" fill="url(#linearGradient3856-3-8)" rx="3.484" ry="3.484"/><rect width="14.791" height="14.791" x="-149.9" y="-470.23" fill="url(#linearGradient3853-3-9)" rx="3.02" ry="3.02"/><path d="m-138.67-466.74c-0.28512 0.0533-0.56906 0.23845-0.74667 0.49777l-4.5867 6.72-1.7422-1.7422c-0.44451-0.44451-1.1555-0.44451-1.6 0-0.44451 0.44452-0.44451 1.1555 0 1.6l2.5244 2.5244 0.17778 0.17777c0.0479 0.0474 0.0846 0.10272 0.14222 0.14223 0.0445 0.0305 0.0954 0.0478 0.14222 0.0711 0.0581 0.0287 0.11658 0.053 0.17778 0.0712 0.0346 0.0107 0.0717 0.0285 0.10667 0.0355 0.0224 0.004 0.0484-0.003 0.0711 0 0.096 0.0123 0.18838 0.0123 0.28444 0 0.096-0.0124 0.19341-0.034 0.28444-0.0711 0.1429-0.0565 0.27868-0.13505 0.39112-0.24889 0.0474-0.0479 0.10272-0.0847 0.14221-0.14222l5.3689-7.8578c0.35523-0.51865 0.2342-1.2448-0.28445-1.6-0.25932-0.17762-0.56821-0.23109-0.85333-0.17778z" opacity=".2"/><path fill="#e9f1fc" d="m-138.67-467.88c-0.28512 0.0533-0.56906 0.23845-0.74667 0.49778l-4.5867 6.72-1.7422-1.7422c-0.44451-0.44452-1.1555-0.44452-1.6 0-0.44451 0.44451-0.44451 1.1555 0 1.6l2.5244 2.5244 0.17778 0.17778c0.0479 0.0474 0.0846 0.10272 0.14222 0.14222 0.0445 0.0305 0.0954 0.0478 0.14222 0.0711 0.0581 0.0287 0.11658 0.053 0.17778 0.0711 0.0346 0.0107 0.0717 0.0285 0.10667 0.0355 0.0224 0.004 0.0484-0.003 0.0711 0 0.096 0.0124 0.18838 0.0124 0.28444 0 0.096-0.0124 0.19341-0.034 0.28444-0.0711 0.1429-0.0565 0.27868-0.13506 0.39112-0.24889 0.0474-0.0479 0.10272-0.0846 0.14221-0.14222l5.3689-7.8578c0.35523-0.51865 0.2342-1.2448-0.28445-1.6-0.25932-0.17762-0.56821-0.2311-0.85333-0.17778z"/></g></g></g></svg>