<svg xmlns="http://www.w3.org/2000/svg" width="32" height="32" version="1.1" viewBox="0 0 8.467 8.467"><defs><linearGradient id="linearGradient4199-9-9" x1="10.126" x2="4.989" y1="12.382" y2="5.346" gradientTransform="matrix(1.0667,0,0,1.0667,-154.67,-482.81)" gradientUnits="userSpaceOnUse"><stop offset="0" stop-color="#75afff"/><stop offset="1" stop-color="#8cbaff"/></linearGradient><linearGradient id="linearGradient4201-94-4" x1="11.932" x2="2.983" y1="13.695" y2="2.441" gradientTransform="matrix(1.0667,0,0,1.0667,-154.67,-482.81)" gradientUnits="userSpaceOnUse"><stop offset="0" stop-color="#87b7ff"/><stop offset="1" stop-color="#98c1ff"/></linearGradient></defs><metadata/><g transform="matrix(2 0 0 2 -.0030824 -585.54)"><g id="radio-checked-insensitive"><g><g stroke-width="1.067"><path fill="#fff" d="m-146.13-466.81c-4.1237 0-7.4667-3.343-7.4667-7.4667s3.3429-7.4667 7.4667-7.4667c4.1237 0 7.4667 3.343 7.4667 7.4667s-3.3429 7.4667-7.4667 7.4667z" transform="matrix(.21704 0 0 .21704 -20.085 347.14) translate(248.43,233.52)"/><path fill="url(#linearGradient4199-9-9)" d="m-146.13-482.81c-4.7128 0-8.5333 3.8205-8.5333 8.5333s3.8205 8.5333 8.5333 8.5333 8.5333-3.8205 8.5333-8.5333-3.8205-8.5333-8.5333-8.5333z" transform="matrix(.21704 0 0 .21704 -20.085 347.14) translate(248.43,233.52)"/><path fill="url(#linearGradient4201-94-4)" fill-opacity=".992" d="m-146.13-482.81c-4.7128 0-8.5333 3.8205-8.5333 8.5333s3.8205 8.5333 8.5333 8.5333 8.5333-3.8205 8.5333-8.5333-3.8205-8.5333-8.5333-8.5333zm0 1.0667c4.1237 0 7.4667 3.343 7.4667 7.4667s-3.3429 7.4667-7.4667 7.4667c-4.1237 0-7.4667-3.343-7.4667-7.4667s3.3429-7.4667 7.4667-7.4667z" transform="matrix(.21704 0 0 .21704 -20.085 347.14) translate(248.43,233.52)"/></g><path d="m-142.93-473.21c0 1.7673-1.4327 3.2-3.2 3.2s-3.2-1.4327-3.2-3.2 1.4327-3.2 3.2-3.2 3.2 1.4327 3.2 3.2z" opacity=".2" transform="matrix(.21704 0 0 .21704 -20.085 347.14) translate(248.43,233.52)"/><path fill="#e9f1fc" d="m-142.93-474.28c0 1.7673-1.4327 3.2-3.2 3.2s-3.2-1.4327-3.2-3.2 1.4327-3.2 3.2-3.2 3.2 1.4327 3.2 3.2z" transform="matrix(.21704 0 0 .21704 -20.085 347.14) translate(248.43,233.52)"/><path stroke-width="1.067" d="m-146.13-482.81c-4.7128 0-8.5333 3.8205-8.5333 8.5333 0 0.17997 0.0161 0.35613 0.0271 0.53333 0.27653-4.4632 3.9734-8 8.5062-8s8.2297 3.5368 8.5062 8c0.011-0.1772 0.0271-0.35336 0.0271-0.53333 0-4.7128-3.8205-8.5333-8.5333-8.5333z" opacity=".2" transform="matrix(.21704 0 0 .21704 -20.085 347.14) translate(248.43,233.52)"/></g></g></g></svg>