<svg xmlns="http://www.w3.org/2000/svg" width="32" height="32" version="1.1" viewBox="0 0 8.467 8.467"><metadata/><g transform="matrix(1.9881 0 0 1.999 .0030424 -585.24)"><rect width="3.482" height="3.479" x=".509" y="293.2" fill="none"/><g transform="matrix(1.0624,0,0,1.0623,3.6435,-16.641)"><rect width="3.482" height="3.479" x="-3.176" y="291.52" fill="none"/><path fill="#f2f2fb" stroke-width=".218" d="m-1.4395 291.51c-0.96146 0-1.7409 0.77873-1.7409 1.7394 0 0.96062 0.77942 1.7394 1.7409 1.7394 0.96146 0 1.7409-0.77873 1.7409-1.7394 0-0.96062-0.77942-1.7394-1.7409-1.7394z"/><path fill="#d4d4f2" d="m-0.78667 293.47c0 0.36023-0.29228 0.65226-0.65283 0.65226s-0.65283-0.29203-0.65283-0.65226 0.29228-0.65226 0.65283-0.65226 0.65283 0.29203 0.65283 0.65226z" opacity=".1"/><path fill="#206ad9" d="m-0.78667 293.25c0 0.36023-0.29228 0.65226-0.65283 0.65226s-0.65283-0.29203-0.65283-0.65226 0.29228-0.65226 0.65283-0.65226 0.65283 0.29203 0.65283 0.65226z"/><path stroke-width=".218" d="m-1.4395 291.51c-0.96146 0-1.7409 0.77873-1.7409 1.7394 0 0.0367 0.00329 0.0726 0.00553 0.10871 0.056413-0.90974 0.81061-1.6306 1.7354-1.6306 0.92475 0 1.6789 0.7209 1.7354 1.6306 0.00225-0.0361 0.00553-0.072 0.00553-0.10871 2e-7 -0.96062-0.77942-1.7394-1.7409-1.7394z" opacity=".1"/></g></g></svg>