<svg xmlns="http://www.w3.org/2000/svg" xmlns:svg="http://www.w3.org/2000/svg" id="svg30" width="16" height="16" version="1.1" viewBox="0 0 4.233 4.233"><defs id="defs12"><linearGradient id="linearGradient6555" x1="10.126" x2="4.989" y1="12.382" y2="5.346" gradientTransform="matrix(.23152 0 0 .23152 .26565 .26192)" gradientUnits="userSpaceOnUse"><stop id="stop2" offset="0" stop-color="#75afff"/><stop id="stop4" offset="1" stop-color="#8cbaff"/></linearGradient><linearGradient id="linearGradient6557" x1="11.932" x2="2.983" y1="13.695" y2="2.441" gradientTransform="matrix(.23152 0 0 .23152 .26565 .26192)" gradientUnits="userSpaceOnUse"><stop id="stop7" offset="0" stop-color="#87b7ff"/><stop id="stop9" offset="1" stop-color="#98c1ff"/></linearGradient></defs><metadata id="metadata14"/><g id="g4536"><g id="g24" stroke-width=".232"><path id="path16" fill="#fff" d="m2.117 3.7346c-0.89501 0-1.6206-0.72554-1.6206-1.6206 0-0.89501 0.72554-1.6206 1.6206-1.6206 0.89501 0 1.6206 0.72554 1.6206 1.6206 0 0.89501-0.72556 1.6206-1.6206 1.6206z"/><path id="path18" fill="url(#linearGradient6555)" d="m2.117 0.26192c-1.0229 0-1.8521 0.8292-1.8521 1.8521s0.8292 1.8521 1.8521 1.8521 1.8521-0.8292 1.8521-1.8521-0.8292-1.8521-1.8521-1.8521z"/><path id="path20" fill="url(#linearGradient6557)" fill-opacity=".992" d="m2.117 0.26192c-1.0229 0-1.8521 0.8292-1.8521 1.8521s0.8292 1.8521 1.8521 1.8521 1.8521-0.8292 1.8521-1.8521-0.8292-1.8521-1.8521-1.8521zm0 0.23152c0.89501 0 1.6206 0.72554 1.6206 1.6206 0 0.89501-0.72556 1.6206-1.6206 1.6206-0.89501 0-1.6206-0.72554-1.6206-1.6206 0-0.89501 0.72554-1.6206 1.6206-1.6206z"/><path id="path22" d="m2.117 0.26192c-1.0229 0-1.8521 0.8292-1.8521 1.8521 0 0.039061 0.003494 0.077294 0.005882 0.11576 0.06004-0.9687 0.8624-1.7364 1.8462-1.7364s1.7862 0.76763 1.8462 1.7363c0.00239-0.038462 0.00588-0.076695 0.00588-0.11576 0-1.0229-0.8292-1.8521-1.8521-1.8521z" opacity=".2"/></g><rect id="rect26" width="2.315" height=".486" x=".96" y="2.044" stroke-width=".217" opacity=".2" rx=".28" ry=".243"/><rect id="rect28" width="2.315" height=".486" x=".96" y="1.87" fill="#1a1a1a" stroke-width=".217" rx=".28" ry=".243"/></g></svg>