<svg xmlns="http://www.w3.org/2000/svg" width="32" height="32" version="1.1" viewBox="0 0 8.467 8.467"><metadata/><g transform="matrix(1.9999 0 0 1.9996 .0010224 .0056203)"><rect width="3.704" height="3.698" x=".264" y=".262" fill="none" stroke-width=".217" rx="0" ry="0"/><path fill="#fff" stroke-width=".231" d="m2.1161 3.7355c-0.89501 0-1.6206-0.72441-1.6206-1.618 0-0.89361 0.72554-1.618 1.6206-1.618 0.89501 0 1.6206 0.72441 1.6206 1.618 0 0.89361-0.72554 1.618-1.6206 1.618z"/><g stroke-width="1.067"><path fill="#206ad9" d="m82.133-270.52c-4.7128 0-8.5333 3.8205-8.5333 8.5333s3.8205 8.5333 8.5333 8.5333 8.5333-3.8205 8.5333-8.5333-3.8205-8.5333-8.5333-8.5333z" transform="matrix(.21704 0 0 .2167 -15.71 58.89)"/><path fill="#206ad9" d="m82.133-270.52c-4.7128 0-8.5333 3.8205-8.5333 8.5333s3.8205 8.5333 8.5333 8.5333 8.5333-3.8205 8.5333-8.5333-3.8205-8.5333-8.5333-8.5333zm0 1.0667c4.1237 0 7.4667 3.3429 7.4667 7.4667 0 4.1237-3.3429 7.4667-7.4667 7.4667-4.1237 0-7.4667-3.3429-7.4667-7.4667 0-4.1237 3.3429-7.4667 7.4667-7.4667z" opacity=".05" transform="matrix(.21704 0 0 .2167 -15.71 58.89)"/><path d="m82.133-270.52c-4.7128 0-8.5333 3.8205-8.5333 8.5333 0 0.17997 0.01611 0.35613 0.02708 0.53334 0.27654-4.4632 3.9734-8 8.5062-8 4.5329 0 8.2297 3.5368 8.5062 8 0.01098-0.17721 0.02708-0.35337 0.02708-0.53334 0-4.7128-3.8205-8.5333-8.5333-8.5333z" opacity=".1" transform="matrix(.21704 0 0 .2167 -15.71 58.89)"/></g><rect width="2.315" height=".485" x=".959" y="2.047" stroke-width=".217" opacity=".2" rx=".28" ry=".243"/><rect width="2.315" height=".485" x=".959" y="1.874" fill="#1a1a1a" stroke-width=".217" rx=".28" ry=".243"/></g></svg>