<svg xmlns="http://www.w3.org/2000/svg" xmlns:svg="http://www.w3.org/2000/svg" id="svg12" width="16" height="16" version="1.1" viewBox="0 0 4.233 4.233"><metadata id="metadata2"/><g id="g10" transform="matrix(.23221 0 0 .23209 -51.271 -64.855)"><rect style="color:#000" id="rect4" width="18.23" height="18.24" x="220.79" y="279.44" fill="none"/><g id="g8" transform="matrix(.50892 0 0 .51740 193.91 210.74)"><rect id="rect6" width="29.124" height="28.625" x="56.171" y="136.11" fill="#2d323d" stroke="#262934" style="color:#000" stroke-linejoin="round" stroke-width="2.221" rx="14.106" ry="14.129"/></g></g><path id="path8" d="m 2.80807,2.3361823 c 0,0.3826735 -0.3105234,0.692896 -0.693568,0.692896 -0.3830446,0 -0.693568,-0.3102225 -0.693568,-0.692896 0,-0.3826735 0.3105234,-0.692896 0.693568,-0.692896 0.3830446,0 0.693568,0.3102225 0.693568,0.692896 z" style="opacity:.1;stroke-width:.21663497"/><path id="path10" d="m 2.80807,2.1044952 c 0,0.3826735 -0.3105234,0.692896 -0.693568,0.692896 -0.3830446,0 -0.693568,-0.3102225 -0.693568,-0.692896 0,-0.3826735 0.3105234,-0.692896 0.693568,-0.692896 0.3830446,0 0.693568,0.3102225 0.693568,0.692896 z" style="fill:#d3dae3;stroke-width:.21663497;fill-opacity:1"/></svg>