<svg xmlns="http://www.w3.org/2000/svg" xmlns:xlink="http://www.w3.org/1999/xlink" width="16" height="16" version="1.1" viewBox="0 0 4.233 4.233"><defs><linearGradient id="linearGradient6555" x1="10.126" x2="4.989" y1="12.382" y2="5.346" gradientTransform="matrix(1.0667 0 0 1.0667 154.67 -389)" gradientUnits="userSpaceOnUse"><stop offset="0" stop-color="#75afff"/><stop offset="1" stop-color="#8cbaff"/></linearGradient><linearGradient id="linearGradient6557" x1="11.932" x2="2.983" y1="13.695" y2="2.441" gradientTransform="matrix(1.0667 0 0 1.0667 154.67 -389)" gradientUnits="userSpaceOnUse"><stop offset="0" stop-color="#87b7ff"/><stop offset="1" stop-color="#98c1ff"/></linearGradient></defs><metadata/><g transform="translate(0 -292.77)"><g id="radio-mixed-insensitive"><g><g><g stroke-width="1.067"><path fill="#fff" d="m163.2-373c-4.1237 0-7.4667-3.3429-7.4667-7.4667 0-4.1237 3.3429-7.4667 7.4667-7.4667 4.1237 0 7.4667 3.3429 7.4667 7.4667 0 4.1237-3.343 7.4667-7.4667 7.4667z" transform="matrix(.21704 0 0 .21704 -15.715 347.14) translate(313.63 342.37) translate(-394.67 -202.67)"/><path fill="url(#linearGradient6555)" d="m163.2-389c-4.7128 0-8.5333 3.8205-8.5333 8.5333s3.8205 8.5333 8.5333 8.5333 8.5333-3.8205 8.5333-8.5333-3.8205-8.5333-8.5333-8.5333z" transform="matrix(.21704 0 0 .21704 -15.715 347.14) translate(313.63 342.37) translate(-394.67 -202.67)"/><path fill="url(#linearGradient6557)" fill-opacity=".992" d="m163.2-389c-4.7128 0-8.5333 3.8205-8.5333 8.5333s3.8205 8.5333 8.5333 8.5333 8.5333-3.8205 8.5333-8.5333-3.8205-8.5333-8.5333-8.5333zm0 1.0667c4.1237 0 7.4667 3.3429 7.4667 7.4667 0 4.1237-3.343 7.4667-7.4667 7.4667s-7.4667-3.3429-7.4667-7.4667c0-4.1237 3.3429-7.4667 7.4667-7.4667z" transform="matrix(.21704 0 0 .21704 -15.715 347.14) translate(313.63 342.37) translate(-394.67 -202.67)"/></g><g transform="matrix(.21704 0 0 .21704 -15.715 347.14) translate(313.63 342.37) translate(-394.67 -202.67)"><path stroke-width="1.067" d="m163.2-389c-4.7128 0-8.5333 3.8205-8.5333 8.5333 0 0.17997 0.0161 0.35613 0.0271 0.53334 0.27653-4.4632 3.9734-8 8.5062-8s8.2297 3.5368 8.5062 8c0.011-0.17721 0.0271-0.35337 0.0271-0.53334 0-4.7128-3.8205-8.5333-8.5333-8.5333z" opacity=".2"/><rect width="10.667" height="2.24" x="157.87" y="-380.79" opacity=".2" rx="1.291" ry="1.12"/><rect width="10.667" height="2.24" x="157.87" y="-381.59" fill="#e9f1fc" rx="1.291" ry="1.12"/></g></g></g></g></g></svg>