<svg xmlns="http://www.w3.org/2000/svg" width="32" height="32" version="1.1" viewBox="0 0 8.467 8.467"><metadata/><g transform="matrix(1.9999 0 0 1.9996 .0010259 -585.43)"><g id="radio-mixed" transform="matrix(.21704 0 0 .2167 -15.71 351.66)"><rect width="17.067" height="17.067" x="73.6" y="-270.55" fill="none" rx="0" ry="0"/><path fill="#fff" stroke-width="1.067" d="m82.133-254.52c-4.1237 0-7.4667-3.3429-7.4667-7.4667 0-4.1237 3.3429-7.4667 7.4667-7.4667 4.1237 0 7.4667 3.3429 7.4667 7.4667 0 4.1237-3.3429 7.4667-7.4667 7.4667z"/><g stroke-width="1.067"><path fill="#206ad9" d="m82.133-270.52c-4.7128 0-8.5333 3.8205-8.5333 8.5333s3.8205 8.5333 8.5333 8.5333 8.5333-3.8205 8.5333-8.5333-3.8205-8.5333-8.5333-8.5333z"/><path fill="#206ad9" d="m82.133-270.52c-4.7128 0-8.5333 3.8205-8.5333 8.5333s3.8205 8.5333 8.5333 8.5333 8.5333-3.8205 8.5333-8.5333-3.8205-8.5333-8.5333-8.5333zm0 1.0667c4.1237 0 7.4667 3.3429 7.4667 7.4667 0 4.1237-3.3429 7.4667-7.4667 7.4667-4.1237 0-7.4667-3.3429-7.4667-7.4667 0-4.1237 3.3429-7.4667 7.4667-7.4667z" opacity=".05"/><path d="m82.133-270.52c-4.7128 0-8.5333 3.8205-8.5333 8.5333 0 0.17997 0.01611 0.35613 0.02708 0.53334 0.27654-4.4632 3.9734-8 8.5062-8 4.5329 0 8.2297 3.5368 8.5062 8 0.01098-0.17721 0.02708-0.35337 0.02708-0.53334 0-4.7128-3.8205-8.5333-8.5333-8.5333z" opacity=".1"/></g><rect width="10.667" height="2.24" x="76.8" y="-262.31" opacity=".2" rx="1.291" ry="1.12"/><rect width="10.667" height="2.24" x="76.8" y="-263.11" fill="#fff" rx="1.291" ry="1.12"/></g></g></svg>