<svg xmlns="http://www.w3.org/2000/svg" width="32" height="32" version="1.1" viewBox="0 0 8.467 8.467"><defs><linearGradient id="linearGradient6555-8" x1="10.126" x2="4.989" y1="12.382" y2="5.346" gradientTransform="matrix(.23152 0 0 .23152 .26565 .26192)" gradientUnits="userSpaceOnUse"><stop offset="0" stop-color="#75afff"/><stop offset="1" stop-color="#8cbaff"/></linearGradient><linearGradient id="linearGradient6557-2" x1="11.932" x2="2.983" y1="13.695" y2="2.441" gradientTransform="matrix(.23152 0 0 .23152 .26565 .26192)" gradientUnits="userSpaceOnUse"><stop offset="0" stop-color="#87b7ff"/><stop offset="1" stop-color="#98c1ff"/></linearGradient></defs><metadata/><g transform="matrix(2 0 0 2 -.00063332 .0052603)"><g stroke-width=".232"><path fill="#fff" d="m2.117 3.7346c-0.89501 0-1.6206-0.72554-1.6206-1.6206 0-0.89501 0.72554-1.6206 1.6206-1.6206 0.89501 0 1.6206 0.72554 1.6206 1.6206 0 0.89501-0.72556 1.6206-1.6206 1.6206z"/><path fill="url(#linearGradient6555-8)" d="m2.117 0.26192c-1.0229 0-1.8521 0.8292-1.8521 1.8521s0.8292 1.8521 1.8521 1.8521 1.8521-0.8292 1.8521-1.8521-0.8292-1.8521-1.8521-1.8521z"/><path fill="url(#linearGradient6557-2)" fill-opacity=".992" d="m2.117 0.26192c-1.0229 0-1.8521 0.8292-1.8521 1.8521s0.8292 1.8521 1.8521 1.8521 1.8521-0.8292 1.8521-1.8521-0.8292-1.8521-1.8521-1.8521zm0 0.23152c0.89501 0 1.6206 0.72554 1.6206 1.6206 0 0.89501-0.72556 1.6206-1.6206 1.6206-0.89501 0-1.6206-0.72554-1.6206-1.6206 0-0.89501 0.72554-1.6206 1.6206-1.6206z"/><path d="m2.117 0.26192c-1.0229 0-1.8521 0.8292-1.8521 1.8521 0 0.039061 0.003494 0.077294 0.005882 0.11576 0.06004-0.9687 0.8624-1.7364 1.8462-1.7364s1.7862 0.76763 1.8462 1.7363c0.00239-0.038462 0.00588-0.076695 0.00588-0.11576 0-1.0229-0.8292-1.8521-1.8521-1.8521z" opacity=".2"/></g><rect width="2.315" height=".486" x=".96" y="2.044" stroke-width=".217" opacity=".2" rx=".28" ry=".243"/><rect width="2.315" height=".486" x=".96" y="1.87" fill="#1a1a1a" stroke-width=".217" rx=".28" ry=".243"/></g></svg>