<svg xmlns="http://www.w3.org/2000/svg" width="32" height="32" version="1.1" viewBox="0 0 8.467 8.467"><defs><linearGradient id="linearGradient4199-9-9-3" x1="10.126" x2="4.989" y1="12.382" y2="5.346" gradientTransform="matrix(1.0667,0,0,1.0667,-154.67,-482.81)" gradientUnits="userSpaceOnUse"><stop offset="0" stop-color="#75afff"/><stop offset="1" stop-color="#8cbaff"/></linearGradient><linearGradient id="linearGradient4201-94-4-5" x1="11.932" x2="2.983" y1="13.695" y2="2.441" gradientTransform="matrix(1.0667,0,0,1.0667,-154.67,-482.81)" gradientUnits="userSpaceOnUse"><stop offset="0" stop-color="#87b7ff"/><stop offset="1" stop-color="#98c1ff"/></linearGradient></defs><metadata/><g><g stroke-width="1.067"><path fill="#fff" d="m-146.13-466.81c-4.1237 0-7.4667-3.343-7.4667-7.4667s3.3429-7.4667 7.4667-7.4667c4.1237 0 7.4667 3.343 7.4667 7.4667s-3.3429 7.4667-7.4667 7.4667z" transform="matrix(2 0 0 2 -.0025880 .0073953) matrix(.21704 0 0 .21704 33.834 105.05)"/><path fill="url(#linearGradient4199-9-9-3)" d="m-146.13-482.81c-4.7128 0-8.5333 3.8205-8.5333 8.5333s3.8205 8.5333 8.5333 8.5333 8.5333-3.8205 8.5333-8.5333-3.8205-8.5333-8.5333-8.5333z" transform="matrix(2 0 0 2 -.0025880 .0073953) matrix(.21704 0 0 .21704 33.834 105.05)"/><path fill="url(#linearGradient4201-94-4-5)" fill-opacity=".992" d="m-146.13-482.81c-4.7128 0-8.5333 3.8205-8.5333 8.5333s3.8205 8.5333 8.5333 8.5333 8.5333-3.8205 8.5333-8.5333-3.8205-8.5333-8.5333-8.5333zm0 1.0667c4.1237 0 7.4667 3.343 7.4667 7.4667s-3.3429 7.4667-7.4667 7.4667c-4.1237 0-7.4667-3.343-7.4667-7.4667s3.3429-7.4667 7.4667-7.4667z" transform="matrix(2 0 0 2 -.0025880 .0073953) matrix(.21704 0 0 .21704 33.834 105.05)"/></g><path stroke-width=".217" d="m2.8127 2.3477c0 0.38357-0.31095 0.69453-0.69453 0.69453-0.38357 0-0.69453-0.31095-0.69453-0.69453 0-0.38357 0.31095-0.69453 0.69453-0.69453 0.38357 0 0.69453 0.31095 0.69453 0.69453z" opacity=".2" transform="matrix(2 0 0 2 -.0025880 .0073953)"/><path fill="#1a1a1a" stroke-width=".217" d="m2.8127 2.1154c0 0.38357-0.31095 0.69453-0.69453 0.69453-0.38357 0-0.69453-0.31095-0.69453-0.69453 0-0.38357 0.31095-0.69453 0.69453-0.69453 0.38357 0 0.69453 0.31095 0.69453 0.69453z" transform="matrix(2 0 0 2 -.0025880 .0073953)"/><path stroke-width=".232" d="m2.1182 0.2641c-1.0229 0-1.8521 0.8292-1.8521 1.8521 0 0.039061 0.003494 0.077294 0.005882 0.11575 0.06002-0.9687 0.8624-1.7363 1.8462-1.7363s1.7862 0.76763 1.8462 1.7363c0.00239-0.03846 0.00588-0.076693 0.00588-0.11575 0-1.0229-0.8292-1.8521-1.8521-1.8521z" opacity=".2" transform="matrix(2 0 0 2 -.0025880 .0073953)"/></g></svg>