<svg xmlns="http://www.w3.org/2000/svg" xmlns:osb="http://www.openswatchbook.org/uri/2009/osb" width="16" height="16" version="1.1" viewBox="0 0 4.233 4.233"><metadata/><g transform="translate(0 -292.77)"><rect width="3.482" height="3.479" x=".509" y="293.2" fill="none"/><rect width="3.699" height="3.695" x=".27" y="293.04" fill="none"/><g><path fill="#f2f2fb" stroke-width=".231" d="m2.1141 293.03c-1.0215 0-1.8495 0.82724-1.8495 1.8477s0.82807 1.8477 1.8495 1.8477c1.0215 0 1.8495-0.82724 1.8495-1.8477s-0.82807-1.8477-1.8495-1.8477z" opacity=".309"/><path fill="#d4d4f2" d="m2.8077 295.11c0 0.38267-0.31053 0.69289-0.69358 0.69289s-0.69358-0.31022-0.69358-0.69289 0.31053-0.69289 0.69358-0.69289 0.69358 0.31022 0.69358 0.69289z" opacity=".1"/><path fill="#206ad9" d="m2.8077 294.88c0 0.38267-0.31053 0.69289-0.69358 0.69289s-0.69358-0.31022-0.69358-0.69289 0.31053-0.69289 0.69358-0.69289 0.69358 0.31022 0.69358 0.69289z"/><path fill="#073ee7" stroke-width=".231" d="m2.1141 293.03c-1.0215 0-1.8495 0.82724-1.8495 1.8477 0 0.039 0.003495 0.0771 0.005875 0.11548 0.059934-0.96641 0.8612-1.7322 1.8437-1.7322 0.98247 0 1.7837 0.7658 1.8437 1.7322 0.00239-0.0384 0.00588-0.0765 0.00588-0.11548 2e-7 -1.0205-0.82807-1.8477-1.8495-1.8477z"/></g></g></svg>