<svg xmlns="http://www.w3.org/2000/svg" width="16" height="16" version="1.1" viewBox="0 0 4.233 4.233"><metadata/><g transform="translate(0 -292.77)"><g id="radio-checked" transform="matrix(.21674 0 0 .21653 -20.058 351.64)"><rect width="17.067" height="17.067" x="93.787" y="-270.65" fill="none"/><path fill="#206ad9" stroke-width="1.067" d="m102.3-270.69c-4.7128 0-8.5333 3.8205-8.5333 8.5333s3.8205 8.5333 8.5333 8.5333 8.5333-3.8205 8.5333-8.5333-3.8205-8.5333-8.5333-8.5333z"/><path d="m105.5-261.09c0 1.7673-1.4327 3.2-3.2 3.2s-3.2-1.4327-3.2-3.2 1.4327-3.2 3.2-3.2 3.2 1.4327 3.2 3.2z" opacity=".1"/><path fill="#fff" d="m105.5-262.16c0 1.7673-1.4327 3.2-3.2 3.2s-3.2-1.4327-3.2-3.2 1.4327-3.2 3.2-3.2 3.2 1.4327 3.2 3.2z"/><path stroke-width="1.067" d="m102.3-270.69c-4.7128 0-8.5333 3.8205-8.5333 8.5333 0 0.17996 0.0161 0.35613 0.02706 0.53333 0.27653-4.4632 3.9734-8 8.5062-8 4.5329 0 8.2297 3.5368 8.5062 8 0.011-0.1772 0.0271-0.35337 0.0271-0.53333 0-4.7128-3.8205-8.5333-8.5333-8.5333z" opacity=".1"/></g></g></svg>